<?xml version="1.0" encoding="UTF-8" standalone="no"?>
<!-- Uploaded to: SVG Repo, www.svgrepo.com, Generator: SVG Repo Mixer Tools -->

<svg
   fill="#000000"
   height="800"
   width="800"
   version="1.1"
   id="Capa_1"
   viewBox="0 0 470 470"
   xml:space="preserve"
   sodipodi:docname="logo-white.svg"
   inkscape:export-filename="logo1.svg"
   inkscape:export-xdpi="96"
   inkscape:export-ydpi="96"
   inkscape:version="1.2.2 (b0a8486541, 2022-12-01)"
   xmlns:inkscape="http://www.inkscape.org/namespaces/inkscape"
   xmlns:sodipodi="http://sodipodi.sourceforge.net/DTD/sodipodi-0.dtd"
   xmlns="http://www.w3.org/2000/svg"
   xmlns:svg="http://www.w3.org/2000/svg"
   xmlns:rdf="http://www.w3.org/1999/02/22-rdf-syntax-ns#"
   xmlns:cc="http://creativecommons.org/ns#"
   xmlns:dc="http://purl.org/dc/elements/1.1/"><title
   id="title115">Lancilloties Logo</title><defs
   id="defs934" /><sodipodi:namedview
   id="namedview932"
   pagecolor="#ffffff"
   bordercolor="#000000"
   borderopacity="0.25"
   inkscape:showpageshadow="2"
   inkscape:pageopacity="0.0"
   inkscape:pagecheckerboard="0"
   inkscape:deskcolor="#d1d1d1"
   showgrid="false"
   inkscape:zoom="0.76"
   inkscape:cx="400"
   inkscape:cy="401.97368"
   inkscape:window-width="1530"
   inkscape:window-height="836"
   inkscape:window-x="0"
   inkscape:window-y="0"
   inkscape:window-maximized="1"
   inkscape:current-layer="layer1" />
<g
   id="g929">
	<path
   d="m 384.772,235 c 8.882,-8.511 16.981,-17.055 24.162,-25.541 31.691,-37.449 42.197,-70.107 29.581,-91.959 -9.807,-16.986 -32.157,-25.228 -64.609,-23.839 -18.816,0.806 -40.499,4.776 -64.019,11.638 C 306.957,93.35 303.607,82.062 299.848,71.598 283.262,25.427 260.231,0 235,0 218.17,0 202.053,11.403 188.393,32.978 177.081,50.842 167.374,75.735 160.133,105.299 148.315,101.86 136.859,99.116 125.913,97.139 77.637,88.417 44.1,95.648 31.484,117.5 c -12.616,21.852 -2.11,54.51 29.581,91.959 7.181,8.486 15.28,17.03 24.162,25.541 -8.882,8.511 -16.981,17.055 -24.162,25.541 -31.691,37.449 -42.197,70.107 -29.581,91.959 8.415,14.575 26.349,22.831 51.863,23.875 1.874,0.077 3.786,0.115 5.741,0.115 20.088,0 44.388,-4.045 71.021,-11.801 2.93,11.955 6.282,23.247 10.042,33.714 C 186.738,444.573 209.769,470 235,470 c 25.231,0 48.262,-25.427 64.849,-71.598 3.759,-10.464 7.109,-21.751 10.039,-33.701 23.52,6.861 45.203,10.832 64.019,11.637 2.353,0.101 4.646,0.151 6.89,0.151 28.738,-10e-4 48.624,-8.235 57.72,-23.99 12.616,-21.852 2.11,-54.51 -29.581,-91.959 -7.183,-8.485 -15.282,-17.029 -24.164,-25.54 z m 40.753,-110 c 9.081,15.729 -1.14,42.981 -28.041,74.77 -7.033,8.311 -14.991,16.688 -23.745,25.038 -15.374,-13.708 -32.697,-27.232 -51.491,-40.181 -1.815,-22.73 -4.861,-44.476 -9.04,-64.628 56.699,-16.593 100.593,-15.305 112.317,5.001 z M 235.007,319.08 c -12.409,-6.083 -24.88,-12.729 -37.122,-19.796 -12.36,-7.136 -24.296,-14.58 -35.708,-22.239 -0.926,-13.713 -1.405,-27.772 -1.405,-42.045 0,-14.263 0.493,-28.301 1.428,-42.061 11.406,-7.653 23.333,-15.091 35.685,-22.223 12.25,-7.072 24.724,-13.719 37.128,-19.799 12.335,6.053 24.745,12.665 37.101,19.799 12.36,7.136 24.296,14.58 35.708,22.239 0.926,13.713 1.405,27.772 1.405,42.045 0,14.273 -0.479,28.331 -1.405,42.045 -11.413,7.658 -23.348,15.102 -35.708,22.239 -12.34,7.124 -24.733,13.73 -37.107,19.796 z m -88.48,-52.908 C 132.414,256.013 119.273,245.559 107.351,235 c 11.928,-10.563 25.074,-21.021 39.194,-31.185 -0.498,10.271 -0.773,20.667 -0.773,31.185 0,10.514 0.259,20.919 0.755,31.172 z m 176.946,-62.344 c 14.113,10.159 27.254,20.613 39.176,31.172 -11.922,10.559 -25.063,21.012 -39.176,31.172 0.496,-10.252 0.755,-20.658 0.755,-31.172 0,-10.514 -0.259,-20.919 -0.755,-31.172 z M 235,15 c 18.161,0 36.652,22.478 50.731,61.669 3.682,10.25 6.959,21.337 9.815,33.1 -9.084,3.006 -18.392,6.4 -27.885,10.195 -3.846,1.538 -5.718,5.902 -4.18,9.748 1.538,3.847 5.901,5.718 9.748,4.18 8.724,-3.488 17.275,-6.616 25.604,-9.391 3.178,15.591 5.658,32.181 7.397,49.465 C 297.6,168.41 288.718,162.984 279.613,157.727 244.124,137.237 208.094,120.864 174.477,109.759 188.506,51.957 211.965,15 235,15 Z M 72.516,199.77 C 45.614,167.981 35.394,140.729 44.475,125 c 9.08,-15.728 37.791,-20.505 78.772,-13.101 28.689,5.182 61.089,15.837 94.517,30.897 -9.172,4.718 -18.336,9.71 -27.378,14.93 -9.091,5.249 -17.96,10.667 -26.578,16.214 0.975,-9.612 2.16,-19.073 3.602,-28.32 0.639,-4.093 -2.161,-7.928 -6.254,-8.566 -4.085,-0.64 -7.928,2.161 -8.566,6.254 -2.09,13.395 -3.681,27.2 -4.813,41.301 -18.804,12.954 -36.136,26.484 -51.517,40.198 C 87.507,216.457 79.548,208.08 72.516,199.77 Z M 44.475,345 c -9.081,-15.729 1.14,-42.981 28.041,-74.77 7.033,-8.311 14.991,-16.688 23.745,-25.038 15.374,13.708 32.697,27.232 51.491,40.181 1.816,22.741 4.864,44.497 9.046,64.658 C 99.728,366.781 55.993,364.949 44.475,345 Z m 241.256,48.331 C 271.652,432.522 253.161,455 235,455 c -18.161,0 -36.652,-22.478 -50.731,-61.669 -9.856,-27.435 -16.828,-60.82 -20.5,-97.297 8.63,5.556 17.512,10.982 26.617,16.239 9.032,5.215 18.19,10.204 27.359,14.921 -8.821,3.967 -17.615,7.652 -26.355,11.03 -3.863,1.494 -5.785,5.836 -4.291,9.7 1.149,2.975 3.988,4.798 6.997,4.798 0.898,0 1.813,-0.163 2.702,-0.506 27.376,-10.582 55.239,-24.02 82.816,-39.942 9.105,-5.257 17.987,-10.683 26.617,-16.239 -1.74,17.284 -4.219,33.875 -7.397,49.465 -8.328,-2.774 -16.879,-5.903 -25.603,-9.39 -3.845,-1.538 -8.21,0.333 -9.748,4.18 -1.538,3.847 0.334,8.21 4.18,9.748 9.492,3.795 18.8,7.189 27.884,10.195 -2.857,11.761 -6.133,22.848 -9.816,33.098 z M 425.525,345 c -11.723,20.305 -55.616,21.594 -112.317,5.001 4.179,-20.153 7.225,-41.898 9.04,-64.628 18.794,-12.949 36.118,-26.472 51.491,-40.181 8.753,8.351 16.712,16.728 23.745,25.038 26.902,31.789 37.122,59.041 28.041,74.77 z"
   id="path925" />
	
</g>
<g
   inkscape:groupmode="layer"
   id="layer1"
   inkscape:label="Erlenmeyer"><path
     d="M 278.69557,266.03404 C 264.70549,231.09645 248.37574,221.8883 248.37574,204.46398 v -20.52336 h 3.42056 a 3.420559,3.420559 0 0 0 3.42056,-3.42056 v -6.84111 a 3.420559,3.420559 0 0 0 -3.42056,-3.42056 h -34.20559 a 3.420559,3.420559 0 0 0 -3.42056,3.42056 v 6.84111 a 3.420559,3.420559 0 0 0 3.42056,3.42056 h 3.42056 v 20.52336 c 0,17.42432 -16.32975,26.63247 -30.31984,61.57006 -4.45356,11.11681 -15.89191,27.36447 44.00207,27.36447 59.89399,0 48.45564,-16.24766 44.00207,-27.36447 z m -11.06208,11.9788 c -4.80247,1.43663 -14.35951,3.07166 -32.93999,3.07166 -18.58047,0 -28.13751,-1.63503 -32.93998,-3.07166 -1.70344,-0.50625 -2.36702,-2.48333 -1.76501,-4.29623 1.50505,-4.58355 4.34411,-12.50556 9.65282,-21.35113 12.97076,-21.61109 26.42724,3.40004 37.62615,3.40004 11.19891,0 8.12725,-10.67898 12.4782,-3.40004 a 105.03168,105.03168 0 0 1 9.65282,21.35113 c 0.60201,1.8129 -0.0616,3.78314 -1.76501,4.29623 z"
     id="path1714"
     style="stroke-width:6.84112" /><path
     style="fill:#ffffff;stroke-width:1.31579"
     d="m 364.63785,497.35272 c -28.32887,-2.96322 -42.96371,-9.57051 -45.74521,-20.6529 -2.47158,-9.84754 15.6002,-47.57885 44.19676,-92.27654 12.37072,-19.33598 13.22639,-22.53994 13.22639,-49.52479 v -22.89753 l -4.93421,-0.40837 -4.93421,-0.40838 v -9.86842 -9.86842 l 32.23684,-0.35309 c 36.48525,-0.39962 35.52632,-0.66688 35.52632,9.9016 0,8.20131 -1.77604,10.84623 -7.28314,10.84623 h -4.55897 l 0.034,22.03947 c 0.0432,28.02989 1.27246,31.88136 19.00297,59.53947 21.04396,32.82681 38.8578,69.84304 38.8578,80.74448 0,10.0758 -11.23279,17.46225 -32.39648,21.30326 -13.73056,2.49196 -66.08624,3.67707 -83.22883,1.88393 z m 68.76118,-19.82636 c 20.05643,-2.01857 25.04251,-3.64166 25.58538,-8.32873 C 459.75489,462.54525 442.83752,425 439.06956,425 c -0.68784,0 -3.54447,2.07237 -6.34809,4.60526 -8.28267,7.4829 -14.94964,6.50421 -31.40568,-4.61023 -11.99566,-8.1019 -17.73927,-10.52135 -24.97698,-10.52135 -5.9637,0 -7.2702,0.56176 -12.48415,5.36781 -9.43154,8.69369 -25.72474,43.04644 -23.88782,50.36533 0.63424,2.52701 2.13884,3.52857 7.06426,4.70244 16.08848,3.83432 60.80912,5.18944 86.36793,2.6171 z"
     id="path393"
     transform="scale(0.5875)" /><path
     style="fill:#ffffff;stroke-width:1.31579"
     d="m 392.63436,798.60214 c -8.56953,-1.14664 -15.14899,-3.29647 -24.21331,-7.91161 -34.84892,-17.74357 -67.16441,-71.1025 -88.87683,-146.75231 -3.22301,-11.22951 -5.86001,-21.33205 -5.86001,-22.4501 0,-1.11805 -0.74013,-1.75138 -1.64474,-1.40741 -4.42002,1.68075 -40.10854,10.36616 -52.30263,12.72875 -36.87514,7.14451 -75.65182,8.9565 -100.65789,4.70362 C 86.669633,632.00112 63.332821,617.44162 52.70783,596.10512 47.654481,585.95726 45.906273,577.77484 45.927582,564.37041 45.973859,535.2597 60.357604,501.93613 89.614845,463.15789 104.25841,443.74896 111.11905,435.88383 130.64672,416.11842 L 146.57127,400 130.64672,383.88158 C 111.11905,364.11617 104.25841,356.25104 89.614845,336.84211 60.357604,298.06387 45.973859,264.7403 45.927582,235.62959 c -0.02252,-14.16795 1.748516,-21.81366 7.734438,-33.39018 9.051526,-17.50527 27.697604,-30.44958 53.74469,-37.31016 11.06859,-2.91538 16.64765,-3.5172 37.75119,-4.07225 27.40123,-0.72068 44.52786,0.66959 71.28947,5.78704 15.36235,2.93764 50.04406,11.14054 54.77075,12.95434 1.39112,0.53382 2.62888,-2.32318 4.97505,-11.48335 1.71776,-6.70669 6.23728,-21.66766 10.04337,-33.24661 C 314.45355,49.026196 355.02196,1.3033895 399.89864,1.1615557 448.30021,1.0085813 492.10921,57.29745 520.45578,156.06178 c 3.22301,11.22951 5.86001,21.33205 5.86001,22.4501 0,1.11805 0.74013,1.74895 1.64474,1.40199 0.9046,-0.34696 11.11842,-3.03859 22.69736,-5.9814 71.74208,-18.23336 128.87274,-18.4495 164.96172,-0.62408 12.6084,6.22768 25.81651,18.833 31.41473,29.98108 5.76677,11.48369 7.36538,20.40049 6.63675,37.01873 -0.52152,11.89487 -1.42334,16.65631 -5.36735,28.3385 -7.78741,23.06639 -18.76404,42.80751 -37.91858,68.19541 -14.5317,19.26065 -21.38559,27.13852 -40.8979,47.00813 l -15.7978,16.08706 15.79399,16.14978 c 19.63694,20.07928 26.4715,27.94467 40.90171,47.07081 19.15454,25.3879 30.13117,45.12902 37.91858,68.19541 3.94401,11.68219 4.84583,16.44363 5.36735,28.3385 1.06321,24.24919 -4.082,38.50049 -19.30722,53.47753 -27.24048,26.79646 -82.6607,33.79926 -154.75861,19.55505 -11.83119,-2.33746 -47.51693,-11.07404 -51.64473,-12.64367 -0.90461,-0.34397 -1.64474,0.29899 -1.64474,1.4288 0,1.12983 -2.70571,11.40699 -6.01268,22.83815 -24.6991,85.37693 -61.27894,139.82489 -101.88206,151.6483 -10.63548,3.097 -17.17735,3.75817 -25.78669,2.60618 z m 26.58011,-28.21607 c 9.52491,-4.66011 25.77598,-20.05323 34.51135,-32.6894 17.4379,-25.22483 33.68109,-63.56405 45.65711,-107.76575 2.55324,-9.4236 4.47671,-17.26835 4.2744,-17.43281 -0.20232,-0.16445 -4.51259,-1.65236 -9.57838,-3.30648 -21.18633,-6.91788 -39.5769,-14.65906 -42.43421,-17.86193 -4.12844,-4.6277 -3.91713,-11.06687 0.50837,-15.49238 4.64111,-4.64111 9.15863,-4.45906 22.8639,0.92142 16.57608,6.50748 32.9382,11.77727 33.82227,10.89321 2.65513,-2.65513 14.34514,-83.70458 12.07297,-83.70458 -0.53009,0 -10.17584,5.61596 -21.43499,12.47989 -51.11675,31.16244 -99.76855,55.90536 -150.63367,76.60799 -19.00522,7.73532 -21.64742,7.96474 -27.24638,2.36579 -6.11847,-6.11849 -2.94145,-16.01793 6.31276,-19.67021 17.5086,-6.90996 43.14266,-18.2192 43.14266,-19.03367 0,-0.52063 -2.22039,-1.98649 -4.93421,-3.25746 -14.06409,-6.58671 -65.87926,-36.39728 -80.32096,-46.21067 -2.65617,-1.80491 -5.46932,-3.28166 -6.25146,-3.28166 -1.00351,0 -0.92712,4.3568 0.25953,14.80263 10.26876,90.39324 34.80019,172.15045 65.16402,217.17557 11.61933,17.22976 29.64442,33.13038 42.20627,37.23175 8.85913,2.89244 22.95444,1.67323 32.03865,-2.77125 z M 177.82112,614.43642 c 27.25554,-2.70639 84.67791,-14.56703 88.36214,-18.25126 0.70619,-0.70619 -0.20394,-8.84041 -2.24538,-20.06792 -4.37879,-24.08245 -8.11712,-50.97115 -10.18147,-73.23227 L 252.13266,485.37521 233.89705,472.188 c -20.72769,-14.98938 -39.60576,-29.78861 -57.12042,-44.77882 -6.62154,-5.66715 -12.63307,-10.30392 -13.35896,-10.30392 -1.76942,0 -28.28502,27.83585 -41.36162,43.42106 -47.823516,56.99796 -63.831703,104.76038 -43.958472,131.15557 14.32761,19.02962 51.596242,27.53344 99.723542,22.75453 z m 506.38941,-1.91578 c 20.42948,-4.65788 35.89238,-14.9508 42.4505,-28.25728 4.27473,-8.67348 4.20989,-29.54927 -0.13503,-43.47389 -7.89086,-25.28861 -27.39478,-56.35059 -55.35316,-88.15552 -12.49783,-14.21729 -33.21964,-35.52869 -34.54579,-35.52869 -0.62334,0 -8.96862,6.57453 -18.54508,14.61004 -17.04452,14.30194 -44.39797,35.40386 -61.5789,47.50529 l -8.6285,6.07752 -1.62736,17.54831 c -2.06779,22.29762 -5.80403,49.17582 -10.18509,73.27082 -1.88811,10.38421 -2.92909,19.38171 -2.3133,19.99443 1.21205,1.20604 31.83169,9.06867 47.83013,12.282 9.54475,1.91709 33.29264,5.46233 44.07894,6.58038 12.3262,1.27767 48.91173,-0.25529 58.55264,-2.45341 z M 422.11111,532.7687 c 31.81207,-16.641 87.51097,-49.4699 100.30051,-59.11707 2.672,-2.0155 2.818,-3.5213 3.67234,-37.87529 0.48936,-19.67698 0.48936,-51.8757 0,-71.55268 -0.85434,-34.35399 -1.00034,-35.85979 -3.67234,-37.87529 -13.50329,-10.18555 -74.05445,-45.68805 -104.40805,-61.21679 L 400,255.92105 l -18.00357,9.21053 c -30.33027,15.5168 -90.90327,51.03012 -104.3876,61.20137 -2.64475,1.99493 -2.8009,3.60533 -3.67236,37.87529 -0.50058,19.68547 -0.50058,51.89805 0,71.58352 0.87146,34.26996 1.02761,35.88036 3.67236,37.87529 18.35791,13.8474 116.23824,69.66731 122.278,69.73358 1.02328,0.0118 11.0242,-4.77314 22.22428,-10.63193 z m -172.769,-132.64306 c 0,-35.51693 -0.4475,-53.56002 -1.31579,-53.05223 -0.72369,0.42321 -9.30921,6.82568 -19.07895,14.22771 -24.00379,18.18646 -45.39474,36.42217 -45.39474,38.69888 0,2.31696 21.51042,20.61563 46.55279,39.60193 10.40666,7.88999 18.99219,14.34544 19.07895,14.34544 0.0867,0 0.15774,-24.21978 0.15774,-53.82173 z m 316.55014,42.5842 c 16.18829,-12.1045 52.44459,-41.63092 52.44459,-42.70984 0,-1.49308 -65.70589,-53.94737 -67.57617,-53.94737 -0.0566,0 -0.10276,24.27632 -0.10276,53.94737 0,29.67105 0.0462,53.94737 0.10276,53.94737 0.0566,0 6.86574,-5.05688 15.13158,-11.23753 z M 176.77663,372.59082 c 17.52288,-14.99725 36.39495,-29.79104 57.15663,-44.805 l 18.27179,-13.21339 1.62065,-17.48359 c 1.97363,-21.29166 6.31362,-53.24206 7.52373,-55.38877 4.77132,-8.46419 12.67899,-9.97935 19.01494,-3.64339 4.26659,4.26658 4.53097,6.35 2.48547,19.58602 -3.20159,20.71684 -4.72346,38.40993 -3.30384,38.40993 0.78214,0 3.59529,-1.47675 6.25146,-3.28166 14.4417,-9.81339 66.25687,-39.62396 80.32096,-46.21067 2.71382,-1.27097 4.93421,-2.70873 4.93421,-3.19502 0,-1.14467 -20.05918,-9.9614 -43.04843,-18.92129 -53.82169,-20.97665 -105.92607,-34.55467 -149.61467,-38.98849 -19.39099,-1.96793 -49.33457,-0.99966 -62.60006,2.02428 -20.534607,4.68097 -35.829969,14.81238 -42.351944,28.05329 -4.386738,8.90594 -4.361333,29.60675 0.05361,43.67746 6.07419,19.35886 21.129846,45.8816 38.713334,68.19922 15.26886,19.37979 48.64043,55.48499 51.28406,55.48499 0.68692,0 6.66656,-4.63677 13.2881,-10.30392 z m 473.35357,-2.5274 c 40.93642,-42.46376 64.27151,-76.04735 75.73834,-109.00175 3.07588,-8.83972 3.62888,-12.57967 3.67842,-24.87746 0.0505,-12.5397 -0.34828,-15.29912 -2.98449,-20.65114 -6.69111,-13.58431 -21.34211,-23.19761 -43.00984,-28.22106 -14.51638,-3.36547 -55.38337,-3.38565 -76.97368,-0.038 -27.17152,4.21304 -70.17153,14.03371 -72.83013,16.63352 -0.61579,0.60216 0.42519,9.59102 2.3133,19.97523 4.38106,24.095 8.1173,50.97319 10.18509,73.27081 l 1.62736,17.54832 8.6285,6.07751 c 17.83555,12.56251 44.75844,33.39578 61.27373,47.41437 9.4004,7.97929 17.74232,14.55125 18.53761,14.60438 0.7953,0.0532 7.01241,-5.67751 13.81579,-12.73474 z M 520.19096,281.25 c -3.00946,-26.43634 -9.74024,-67.2905 -11.35168,-68.90195 -0.88407,-0.88406 -17.24619,4.38573 -33.82227,10.89321 -13.70527,5.38048 -18.22279,5.56253 -22.8639,0.92142 -4.4255,-4.42551 -4.63681,-10.86468 -0.50837,-15.49238 2.85731,-3.20287 21.24788,-10.94405 42.43421,-17.86193 5.06579,-1.65412 9.37606,-3.14203 9.57838,-3.30648 0.20231,-0.16446 -1.72116,-8.00921 -4.2744,-17.43281 C 487.40691,125.86739 471.16372,87.528159 453.72582,62.303334 444.90197,49.539196 428.75143,34.283354 418.98717,29.489125 412.21384,26.163439 409.70841,25.660205 400,25.675403 c -9.61462,0.01505 -12.26757,0.546477 -18.90371,3.786693 -25.87092,12.63194 -52.12508,53.374683 -71.34486,110.717154 -5.26286,15.70183 -14.02946,46.86586 -13.33331,47.39808 0.16083,0.12289 4.43714,1.56401 9.50293,3.20234 12.79275,4.13732 49.39382,18.49211 67.66202,26.53676 40.26026,17.72918 86.78743,42.2421 125.10114,65.90977 11.21711,6.92918 21.02409,12.6498 21.79329,12.71247 0.96901,0.079 0.88101,-4.43242 -0.28654,-14.68867 z"
     id="path395"
     transform="scale(0.5875)" /></g><metadata
   id="metadata113"><rdf:RDF><cc:Work
       rdf:about=""><dc:title>Lancilloties Logo</dc:title><dc:date>1 March 2024</dc:date><dc:creator><cc:Agent><dc:title>Olivier Caron</dc:title></cc:Agent></dc:creator><dc:rights><cc:Agent><dc:title>Olivier Caron</dc:title></cc:Agent></dc:rights><dc:publisher><cc:Agent><dc:title>Olivier Caron</dc:title></cc:Agent></dc:publisher></cc:Work></rdf:RDF></metadata></svg>
