<?xml version="1.0" encoding="UTF-8" standalone="no"?>
<!-- Uploaded to: SVG Repo, www.svgrepo.com, Generator: SVG Repo Mixer Tools -->

<svg
   fill="#000000"
   height="800"
   width="800"
   version="1.1"
   id="Capa_1"
   viewBox="0 0 470 470"
   xml:space="preserve"
   sodipodi:docname="logo.svg"
   inkscape:export-filename="logo1.svg"
   inkscape:export-xdpi="96"
   inkscape:export-ydpi="96"
   inkscape:version="1.2.2 (b0a8486541, 2022-12-01)"
   xmlns:inkscape="http://www.inkscape.org/namespaces/inkscape"
   xmlns:sodipodi="http://sodipodi.sourceforge.net/DTD/sodipodi-0.dtd"
   xmlns="http://www.w3.org/2000/svg"
   xmlns:svg="http://www.w3.org/2000/svg"
   xmlns:rdf="http://www.w3.org/1999/02/22-rdf-syntax-ns#"
   xmlns:cc="http://creativecommons.org/ns#"
   xmlns:dc="http://purl.org/dc/elements/1.1/"><title
   id="title115">Lancilloties Logo</title><defs
   id="defs934" /><sodipodi:namedview
   id="namedview932"
   pagecolor="#ffffff"
   bordercolor="#000000"
   borderopacity="0.25"
   inkscape:showpageshadow="2"
   inkscape:pageopacity="0.0"
   inkscape:pagecheckerboard="0"
   inkscape:deskcolor="#d1d1d1"
   showgrid="false"
   inkscape:zoom="0.76"
   inkscape:cx="400"
   inkscape:cy="400.65789"
   inkscape:window-width="1530"
   inkscape:window-height="836"
   inkscape:window-x="0"
   inkscape:window-y="0"
   inkscape:window-maximized="1"
   inkscape:current-layer="layer1" />
<g
   id="g929">
	<path
   d="m 384.772,235 c 8.882,-8.511 16.981,-17.055 24.162,-25.541 31.691,-37.449 42.197,-70.107 29.581,-91.959 -9.807,-16.986 -32.157,-25.228 -64.609,-23.839 -18.816,0.806 -40.499,4.776 -64.019,11.638 C 306.957,93.35 303.607,82.062 299.848,71.598 283.262,25.427 260.231,0 235,0 218.17,0 202.053,11.403 188.393,32.978 177.081,50.842 167.374,75.735 160.133,105.299 148.315,101.86 136.859,99.116 125.913,97.139 77.637,88.417 44.1,95.648 31.484,117.5 c -12.616,21.852 -2.11,54.51 29.581,91.959 7.181,8.486 15.28,17.03 24.162,25.541 -8.882,8.511 -16.981,17.055 -24.162,25.541 -31.691,37.449 -42.197,70.107 -29.581,91.959 8.415,14.575 26.349,22.831 51.863,23.875 1.874,0.077 3.786,0.115 5.741,0.115 20.088,0 44.388,-4.045 71.021,-11.801 2.93,11.955 6.282,23.247 10.042,33.714 C 186.738,444.573 209.769,470 235,470 c 25.231,0 48.262,-25.427 64.849,-71.598 3.759,-10.464 7.109,-21.751 10.039,-33.701 23.52,6.861 45.203,10.832 64.019,11.637 2.353,0.101 4.646,0.151 6.89,0.151 28.738,-10e-4 48.624,-8.235 57.72,-23.99 12.616,-21.852 2.11,-54.51 -29.581,-91.959 -7.183,-8.485 -15.282,-17.029 -24.164,-25.54 z m 40.753,-110 c 9.081,15.729 -1.14,42.981 -28.041,74.77 -7.033,8.311 -14.991,16.688 -23.745,25.038 -15.374,-13.708 -32.697,-27.232 -51.491,-40.181 -1.815,-22.73 -4.861,-44.476 -9.04,-64.628 56.699,-16.593 100.593,-15.305 112.317,5.001 z M 235.007,319.08 c -12.409,-6.083 -24.88,-12.729 -37.122,-19.796 -12.36,-7.136 -24.296,-14.58 -35.708,-22.239 -0.926,-13.713 -1.405,-27.772 -1.405,-42.045 0,-14.263 0.493,-28.301 1.428,-42.061 11.406,-7.653 23.333,-15.091 35.685,-22.223 12.25,-7.072 24.724,-13.719 37.128,-19.799 12.335,6.053 24.745,12.665 37.101,19.799 12.36,7.136 24.296,14.58 35.708,22.239 0.926,13.713 1.405,27.772 1.405,42.045 0,14.273 -0.479,28.331 -1.405,42.045 -11.413,7.658 -23.348,15.102 -35.708,22.239 -12.34,7.124 -24.733,13.73 -37.107,19.796 z m -88.48,-52.908 C 132.414,256.013 119.273,245.559 107.351,235 c 11.928,-10.563 25.074,-21.021 39.194,-31.185 -0.498,10.271 -0.773,20.667 -0.773,31.185 0,10.514 0.259,20.919 0.755,31.172 z m 176.946,-62.344 c 14.113,10.159 27.254,20.613 39.176,31.172 -11.922,10.559 -25.063,21.012 -39.176,31.172 0.496,-10.252 0.755,-20.658 0.755,-31.172 0,-10.514 -0.259,-20.919 -0.755,-31.172 z M 235,15 c 18.161,0 36.652,22.478 50.731,61.669 3.682,10.25 6.959,21.337 9.815,33.1 -9.084,3.006 -18.392,6.4 -27.885,10.195 -3.846,1.538 -5.718,5.902 -4.18,9.748 1.538,3.847 5.901,5.718 9.748,4.18 8.724,-3.488 17.275,-6.616 25.604,-9.391 3.178,15.591 5.658,32.181 7.397,49.465 C 297.6,168.41 288.718,162.984 279.613,157.727 244.124,137.237 208.094,120.864 174.477,109.759 188.506,51.957 211.965,15 235,15 Z M 72.516,199.77 C 45.614,167.981 35.394,140.729 44.475,125 c 9.08,-15.728 37.791,-20.505 78.772,-13.101 28.689,5.182 61.089,15.837 94.517,30.897 -9.172,4.718 -18.336,9.71 -27.378,14.93 -9.091,5.249 -17.96,10.667 -26.578,16.214 0.975,-9.612 2.16,-19.073 3.602,-28.32 0.639,-4.093 -2.161,-7.928 -6.254,-8.566 -4.085,-0.64 -7.928,2.161 -8.566,6.254 -2.09,13.395 -3.681,27.2 -4.813,41.301 -18.804,12.954 -36.136,26.484 -51.517,40.198 C 87.507,216.457 79.548,208.08 72.516,199.77 Z M 44.475,345 c -9.081,-15.729 1.14,-42.981 28.041,-74.77 7.033,-8.311 14.991,-16.688 23.745,-25.038 15.374,13.708 32.697,27.232 51.491,40.181 1.816,22.741 4.864,44.497 9.046,64.658 C 99.728,366.781 55.993,364.949 44.475,345 Z m 241.256,48.331 C 271.652,432.522 253.161,455 235,455 c -18.161,0 -36.652,-22.478 -50.731,-61.669 -9.856,-27.435 -16.828,-60.82 -20.5,-97.297 8.63,5.556 17.512,10.982 26.617,16.239 9.032,5.215 18.19,10.204 27.359,14.921 -8.821,3.967 -17.615,7.652 -26.355,11.03 -3.863,1.494 -5.785,5.836 -4.291,9.7 1.149,2.975 3.988,4.798 6.997,4.798 0.898,0 1.813,-0.163 2.702,-0.506 27.376,-10.582 55.239,-24.02 82.816,-39.942 9.105,-5.257 17.987,-10.683 26.617,-16.239 -1.74,17.284 -4.219,33.875 -7.397,49.465 -8.328,-2.774 -16.879,-5.903 -25.603,-9.39 -3.845,-1.538 -8.21,0.333 -9.748,4.18 -1.538,3.847 0.334,8.21 4.18,9.748 9.492,3.795 18.8,7.189 27.884,10.195 -2.857,11.761 -6.133,22.848 -9.816,33.098 z M 425.525,345 c -11.723,20.305 -55.616,21.594 -112.317,5.001 4.179,-20.153 7.225,-41.898 9.04,-64.628 18.794,-12.949 36.118,-26.472 51.491,-40.181 8.753,8.351 16.712,16.728 23.745,25.038 26.902,31.789 37.122,59.041 28.041,74.77 z"
   id="path925" />
	
</g>
<g
   inkscape:groupmode="layer"
   id="layer1"
   inkscape:label="Erlenmeyer"><path
     d="M 278.69557,266.03404 C 264.70549,231.09645 248.37574,221.8883 248.37574,204.46398 v -20.52336 h 3.42056 a 3.420559,3.420559 0 0 0 3.42056,-3.42056 v -6.84111 a 3.420559,3.420559 0 0 0 -3.42056,-3.42056 h -34.20559 a 3.420559,3.420559 0 0 0 -3.42056,3.42056 v 6.84111 a 3.420559,3.420559 0 0 0 3.42056,3.42056 h 3.42056 v 20.52336 c 0,17.42432 -16.32975,26.63247 -30.31984,61.57006 -4.45356,11.11681 -15.89191,27.36447 44.00207,27.36447 59.89399,0 48.45564,-16.24766 44.00207,-27.36447 z m -11.06208,11.9788 c -4.80247,1.43663 -14.35951,3.07166 -32.93999,3.07166 -18.58047,0 -28.13751,-1.63503 -32.93998,-3.07166 -1.70344,-0.50625 -2.36702,-2.48333 -1.76501,-4.29623 1.50505,-4.58355 4.34411,-12.50556 9.65282,-21.35113 12.97076,-21.61109 26.42724,3.40004 37.62615,3.40004 11.19891,0 8.12725,-10.67898 12.4782,-3.40004 a 105.03168,105.03168 0 0 1 9.65282,21.35113 c 0.60201,1.8129 -0.0616,3.78314 -1.76501,4.29623 z"
     id="path1714"
     style="stroke-width:6.84112" /></g><metadata
   id="metadata113"><rdf:RDF><cc:Work
       rdf:about=""><dc:title>Lancilloties Logo</dc:title><dc:date>1 March 2024</dc:date><dc:creator><cc:Agent><dc:title>Olivier Caron</dc:title></cc:Agent></dc:creator><dc:rights><cc:Agent><dc:title>Olivier Caron</dc:title></cc:Agent></dc:rights><dc:publisher><cc:Agent><dc:title>Olivier Caron</dc:title></cc:Agent></dc:publisher></cc:Work></rdf:RDF></metadata></svg>
